<svg xmlns="http://www.w3.org/2000/svg" width="43" height="42.283" viewBox="0 0 43 42.283">
  <g id="canteen" transform="translate(-2 -3.001)">
    <path id="Path_31" data-name="Path 31" d="M44.7,17.893,24.217,3.136a.717.717,0,0,0-.839,0L2.294,18.373A.717.717,0,0,0,2,18.953V44.567a.717.717,0,0,0,.717.717H14.9V25.217H32.817V45.284H44.283A.717.717,0,0,0,45,44.567V18.473A.717.717,0,0,0,44.7,17.893ZM43.567,43.85H34.25V24.5a.717.717,0,0,0-.717-.717H14.183a.717.717,0,0,0-.717.717V43.85H3.433V19.326L23.83,4.6,43.567,18.846Z" transform="translate(0)" fill="#fff"/>
    <path id="Path_32" data-name="Path 32" d="M22,17.167A7.167,7.167,0,1,0,29.167,10,7.167,7.167,0,0,0,22,17.167Zm12.9,0a5.733,5.733,0,1,1-5.733-5.733A5.733,5.733,0,0,1,34.9,17.167Z" transform="translate(-5.667 -1.983)" fill="#fff"/>
    <path id="Path_33" data-name="Path 33" d="M31,16v3.583a.718.718,0,0,0,1.147.573l2.867-2.15-.86-1.147-1.72,1.29V16Z" transform="translate(-8.217 -3.683)" fill="#fff"/>
    <path id="Path_34" data-name="Path 34" d="M36.524,54.346V42.808a2.573,2.573,0,0,0,2.15-2.8,4.82,4.82,0,0,1,.057-.882c.108-1.068.237-2.394-.58-3.29A3.032,3.032,0,0,0,35.808,35a3.032,3.032,0,0,0-2.343.846,4.022,4.022,0,0,0-.581,3.289c0,.315.057.616.057.882a2.573,2.573,0,0,0,2.15,2.8V54.346Zm-2.15-14.333A5.588,5.588,0,0,0,34.31,39c-.079-.831-.172-1.763.215-2.193a1.713,1.713,0,0,1,1.283-.373,1.713,1.713,0,0,1,1.283.373c.387.43.294,1.362.215,2.193,0,.358-.064.717-.064,1.018,0,.989-.444,1.433-1.433,1.433S34.374,41,34.374,40.013Z" transform="translate(-8.724 -9.063)" fill="#fff"/>
    <path id="Path_35" data-name="Path 35" d="M23,36v5.733a.717.717,0,0,0,.717.717H25.15V54.633h1.433V42.45h1.433a.717.717,0,0,0,.717-.717V36H27.3v5.017h-.717V36H25.15v5.017h-.717V36Z" transform="translate(-5.95 -9.35)" fill="#fff"/>
  </g>
</svg>
