<svg xmlns="http://www.w3.org/2000/svg" width="49.814" height="38" viewBox="0 0 49.814 38">
  <g id="computer-lab" transform="translate(0 -1026.362)">
    <g id="Group_1" data-name="Group 1" transform="translate(0 1026.362)">
      <path id="Path_6" data-name="Path 6" d="M17.108,6a1.312,1.312,0,0,0-1.294,1.3V21.814H8.7a.791.791,0,0,0-.791.791V32.884H0V44H22.14V32.884H9.488V23.4h6.326v.158a1.447,1.447,0,0,0,.3.893,1.226,1.226,0,0,0,.992.531h8.985V28.93h-5.14v1.581h16.6V28.93h-5.14V27.349H45.07V31.3h-.522a2.483,2.483,0,0,0-1.934,1,3.5,3.5,0,0,0-.707,2.165v4.744a3.512,3.512,0,0,0,.707,2.168,2.48,2.48,0,0,0,1.933.995h2.625a2.48,2.48,0,0,0,1.934-.995,3.512,3.512,0,0,0,.707-2.168V34.465a3.5,3.5,0,0,0-.707-2.165,2.483,2.483,0,0,0-1.933-1h-.522V26.558a.791.791,0,0,0-.791-.791H32.419v-.791H41.4a1.226,1.226,0,0,0,.991-.531,1.447,1.447,0,0,0,.3-.893V7.3A1.312,1.312,0,0,0,41.4,6ZM17.4,7.581H41.116v11.07H17.4Zm0,12.651H41.116V23.4H17.4Zm10.279,4.744h3.163v2.372H27.675Zm16.873,7.907h.522v1.109a1.182,1.182,0,0,0-.4.868,1.186,1.186,0,0,0,2.372,0,1.182,1.182,0,0,0-.4-.868V32.884h.522a.863.863,0,0,1,.686.389,1.97,1.97,0,0,1,.374,1.192v4.744a1.969,1.969,0,0,1-.374,1.192.861.861,0,0,1-.686.389H44.548a.863.863,0,0,1-.686-.389,1.969,1.969,0,0,1-.374-1.192V34.465a1.97,1.97,0,0,1,.374-1.192.862.862,0,0,1,.686-.389ZM1.581,34.465H13.442v3.163H1.581Zm13.442,0h5.535v1.581H15.023Zm0,3.163h5.535v4.791H15.023ZM1.581,39.209H13.442v3.209H1.581Z" transform="translate(0 -6)" fill="#fff" fill-rule="evenodd"/>
    </g>
  </g>
</svg>
