<svg xmlns="http://www.w3.org/2000/svg" width="38" height="37.997" viewBox="0 0 38 37.997">
  <path id="library" d="M42.156,9.226H32.444V5.933a.864.864,0,0,0-.76-.844c-.591-.042-5.236-.38-7.684.718-2.449-1.1-7.093-.76-7.684-.718a.833.833,0,0,0-.76.844V9.226H5.844A.847.847,0,0,0,5,10.07V20.2a.847.847,0,0,0,.844.844h.844V42.159A.847.847,0,0,0,7.533,43H40.467a.847.847,0,0,0,.844-.844V21.048h.844A.847.847,0,0,0,43,20.2V10.07A.847.847,0,0,0,42.156,9.226ZM24.844,7.284a18.3,18.3,0,0,1,5.911-.591v7.516a23.076,23.076,0,0,0-5.911.464Zm-7.6-.591a17.194,17.194,0,0,1,5.911.549v7.473a17.6,17.6,0,0,0-4.644-.507,11.875,11.875,0,0,0-1.267.042ZM35.4,41.315H12.6v-7.6H35.4Zm0-9.289H12.6V29.493H35.4Zm4.222,9.289H37.089V28.648a.847.847,0,0,0-.844-.844H11.756a.847.847,0,0,0-.844.844V41.315H8.378V21.048H39.622Zm1.689-21.956H6.689V10.915h8.867v4.222a.859.859,0,0,0,.253.633.735.735,0,0,0,.633.211c1.436-.127,5.573-.211,7.093.718h0c.042,0,.084.042.127.042s.042.042.084.042a1.829,1.829,0,0,1,.211.042.459.459,0,0,0,.211-.042c.042,0,.042,0,.084-.042.042,0,.084-.042.127-.042h0c1.52-.929,5.658-.844,7.093-.718a1.037,1.037,0,0,0,.633-.211.859.859,0,0,0,.253-.633V10.915h8.867v8.444Zm-30.4,5.067a.847.847,0,0,1,.844-.844H36.244a.844.844,0,1,1,0,1.689H11.756A.847.847,0,0,1,10.911,24.426Z" transform="translate(-5 -5.006)" fill="#fff"/>
</svg>
