<svg xmlns="http://www.w3.org/2000/svg" width="39" height="41.786" viewBox="0 0 39 41.786">
  <g id="modern-classroom" transform="translate(-32 -16)">
    <path id="Path_4" data-name="Path 4" d="M48.7,37.589H83.518a.7.7,0,0,0,.7-.7V34.107a.7.7,0,0,0-.7-.7H82.125V16.7a.7.7,0,0,0-.7-.7H50.786a.7.7,0,0,0-.7.7V33.411H48.7a.7.7,0,0,0-.7.7v2.786a.7.7,0,0,0,.7.7Zm2.786-20.2h29.25V33.411H62.625V30.625a.7.7,0,0,0-.7-.7H56.357a.7.7,0,0,0-.7.7v2.786H51.482Zm9.75,16.018H57.054V31.321h4.179ZM49.393,34.8H82.821V36.2H49.393Z" transform="translate(-14.607)" fill="#fff"/>
    <rect id="Rectangle_42" data-name="Rectangle 42" width="3" height="1" transform="translate(43 42)" fill="#fff"/>
    <rect id="Rectangle_43" data-name="Rectangle 43" width="3" height="1" transform="translate(57 42)" fill="#fff"/>
    <path id="Path_5" data-name="Path 5" d="M70.3,281.393H62.883l-.269-.9a.7.7,0,0,0-.667-.5H54.982a.7.7,0,0,0-.667.5l-.269.9H48.954l-.269-.9a.7.7,0,0,0-.667-.5H41.054a.7.7,0,0,0-.667.5l-.269.9H32.7a.7.7,0,0,0-.7.7v2.786a.7.7,0,0,0,.7.7h.7v12.536a.7.7,0,0,0,.7.7h1.393a.7.7,0,0,0,.692-.624L37.5,285.571h1.362l-.567,1.889a.708.708,0,0,0-.029.2v2.089a2.085,2.085,0,0,0,1.448,1.978l.645,6.448a.7.7,0,0,0,.693.627h1.393a.7.7,0,0,0,.693-.627l.634-6.337H45.3l.634,6.337a.7.7,0,0,0,.693.627h1.393a.7.7,0,0,0,.693-.627l.645-6.449A2.085,2.085,0,0,0,50.8,289.75v-2.089a.708.708,0,0,0-.029-.2l-.567-1.889h2.585l-.567,1.889a.708.708,0,0,0-.029.2v2.089a2.085,2.085,0,0,0,1.448,1.978l.645,6.448a.7.7,0,0,0,.693.627h1.393a.7.7,0,0,0,.693-.627l.634-6.337h1.525l.634,6.337a.7.7,0,0,0,.693.627h1.393a.7.7,0,0,0,.693-.627l.645-6.449a2.085,2.085,0,0,0,1.448-1.978v-2.089a.708.708,0,0,0-.029-.2l-.567-1.889H65.5l1.327,12.609a.7.7,0,0,0,.692.624h1.393a.7.7,0,0,0,.7-.7V285.571h.7a.7.7,0,0,0,.7-.7v-2.786a.7.7,0,0,0-.7-.7ZM34.855,297.411h-.069V285.571H36.1Zm-1.462-13.232v-1.393H39.7l-.418,1.393Zm8.423,13.232h-.132l-.557-5.571h1.246Zm5.439,0-.557-5.571h1.246l-.557,5.571Zm2.155-7.661a.7.7,0,0,1-.7.7H40.357a.7.7,0,0,1-.7-.7v-1.987l1.911-6.37H47.5l1.911,6.37Zm.379-5.571-.418-1.393h4.256l-.418,1.393Zm5.955,13.232h-.132l-.557-5.571H56.3Zm5.439,0-.557-5.571h1.246l-.557,5.571Zm2.155-7.661a.7.7,0,0,1-.7.7H54.286a.7.7,0,0,1-.7-.7v-1.987l1.911-6.37h5.928l1.911,6.37Zm4.875,7.661h-.069L66.9,285.571h1.316Zm1.393-13.232H63.718l-.418-1.393h6.307Z" transform="translate(0 -241.018)" fill="#fff"/>
  </g>
</svg>
