<svg xmlns="http://www.w3.org/2000/svg" width="46" height="44.907" viewBox="0 0 46 44.907">
  <g id="music-and-dance" transform="translate(-0.151 -0.432)">
    <path id="Path_10" data-name="Path 10" d="M29.4,15.117c.6-.481,1.184-.971,1.764-1.469q.748-.643,1.493-1.308l.7-.637a5.79,5.79,0,0,0,.728-.71A3.325,3.325,0,0,0,34.769,9,2.417,2.417,0,0,0,33.7,7.015c-1.467-.972-3.1.241-3.707.7-.588.441-1.135.93-1.683,1.421l-.332.3a5.3,5.3,0,0,1-1,.823c-.509-.313-1-.646-1.458-.988a8.711,8.711,0,0,0-6.436-1.846c-.291.017-.584.031-.846.041h-.047A7.064,7.064,0,0,0,14.08,8.8c-.386.3-.8.553-1.2.815a10.956,10.956,0,0,0-.918.635c-.495-.452-1-.9-1.5-1.343-.553-.489-1.106-.98-1.613-1.444a2.811,2.811,0,0,0-3.966-.138c-.066.066-.128.13-.186.2a2.722,2.722,0,0,0,.278,3.826c1.2,1.106,2.6,2.386,4.065,3.568a4.572,4.572,0,0,0,5.363.276l.924-.6c.064.611.126,1.188.2,1.71a37.567,37.567,0,0,0,1.291,8.047,9.5,9.5,0,0,1,.326,1.464,2.457,2.457,0,0,1-.272,1.745c-.573,1.071-1.749,3.422-2.589,5.115a2.952,2.952,0,0,0,1.184,3.876c.008,0,.12.064.13.068a2.953,2.953,0,0,0,3.975-1.3c1.551-3.055,2.582-5.138,3.073-6.217a6.528,6.528,0,0,0,.493-2.706c.085.155.167.311.247.468a1.417,1.417,0,0,1,.089.85c-.289,1.042-.6,2.077-.916,3.111-.268.879-.532,1.757-.811,2.737a2.886,2.886,0,0,0,2.05,3.521c.111.031.221.056.342.078a2.943,2.943,0,0,0,.468.039,2.9,2.9,0,0,0,2.869-2.364c.047-.144,1.165-3.571,1.57-5.384.064-.291.142-.571.215-.839A4.017,4.017,0,0,0,29.2,25.3c-.765-1.314-2.147-3.674-3.071-5.247a6.855,6.855,0,0,1-.939-3.073c0-.458-.025-.926-.058-1.4A4.076,4.076,0,0,0,29.4,15.117Zm-3.886-.872-.384-.231a1.012,1.012,0,0,0-.951-.179.818.818,0,0,0-.47.982l.039.446c.041.567.085,1.145.085,1.751a8.206,8.206,0,0,0,1.128,3.727c.922,1.57,2.3,3.925,3.065,5.237.359.619.214,1.236-.07,2.271-.08.289-.163.59-.233.9-.39,1.749-1.524,5.223-1.561,5.363a1.571,1.571,0,0,1-1.8,1.3c-.064-.012-.13-.027-.206-.049a1.514,1.514,0,0,1-.932-.7,1.559,1.559,0,0,1-.14-1.229c.248-.875.512-1.745.776-2.618.316-1.044.631-2.089.93-3.17a2.82,2.82,0,0,0-.175-1.761A23,23,0,0,0,22.6,23.023a.674.674,0,0,0-.545-.276.7.7,0,0,0-.278.058.68.68,0,0,0-.388.757,22.618,22.618,0,0,1,.4,2.875,5.169,5.169,0,0,1-.38,2.123c-.474,1.038-1.5,3.108-3.038,6.143a1.6,1.6,0,0,1-2.2.675s-.019-.01-.031-.017a1.592,1.592,0,0,1-.635-2.089c.835-1.677,2-4.012,2.562-5.06a3.771,3.771,0,0,0,.419-2.644,10.92,10.92,0,0,0-.359-1.6,36.633,36.633,0,0,1-1.244-7.8c-.083-.6-.146-1.194-.212-1.828l-.111-1a.679.679,0,0,0-1.046-.493l-1.848,1.207A3.211,3.211,0,0,1,9.9,13.861c-1.429-1.155-2.813-2.417-4.016-3.527A1.355,1.355,0,0,1,5.406,9.4a1.424,1.424,0,0,1,.411-1.087,1.459,1.459,0,0,1,2.075.113c.549.5,1.108,1,1.667,1.5.5.441.994.879,1.485,1.33a1.332,1.332,0,0,0,1.669.1c.293-.206.594-.4.9-.592.439-.281.877-.563,1.277-.868a5.718,5.718,0,0,1,3.337-1.07h.037c.3-.012.606-.025.947-.047a7.373,7.373,0,0,1,5.483,1.568,20.625,20.625,0,0,0,1.947,1.291.684.684,0,0,0,.672.008,6.711,6.711,0,0,0,1.615-1.234l.293-.264c.518-.464,1.035-.93,1.588-1.345,1.035-.773,1.677-.967,2.139-.656a1.057,1.057,0,0,1,.466.85,1.96,1.96,0,0,1-.38,1.137,4.539,4.539,0,0,1-.561.542l-.724.656q-.731.649-1.469,1.289c-.571.487-1.147.969-1.728,1.436A2.7,2.7,0,0,1,25.511,14.245Z" transform="translate(3.66 5.779)" fill="#fff"/>
    <path id="Path_11" data-name="Path 11" d="M14.509,11.294h.126c.043,0,.148,0,.155,0A4.592,4.592,0,0,0,19.2,6.523a4.646,4.646,0,0,0-4.66-4.509h-.027l-.217.008A4.623,4.623,0,0,0,9.954,6.89,4.573,4.573,0,0,0,14.509,11.294Zm.01-7.921h.017a3.3,3.3,0,0,1,3.309,3.2,3.233,3.233,0,0,1-3.106,3.36l-.12,0H14.6a3.221,3.221,0,0,1-3.286-3.108A3.29,3.29,0,0,1,14.519,3.373Z" transform="translate(9.217 1.489)" fill="#fff"/>
    <path id="Path_12" data-name="Path 12" d="M27.037,11.232h-4.53a1.492,1.492,0,0,0-1.491,1.491v4.253a1.807,1.807,0,0,0-.5-.1,1.86,1.86,0,1,0,0,3.721,1.84,1.84,0,0,0,1.805-1.588.681.681,0,0,0,.054-.268V15.093h4.8v1.883a1.807,1.807,0,0,0-.5-.1,1.86,1.86,0,1,0,0,3.721,1.84,1.84,0,0,0,1.805-1.588.681.681,0,0,0,.054-.268V12.723A1.491,1.491,0,0,0,27.037,11.232Zm-6.524,8a.5.5,0,1,1,.5-.5A.506.506,0,0,1,20.513,19.237Zm1.86-5.5V12.723a.132.132,0,0,1,.132-.132h4.53a.131.131,0,0,1,.132.132v1.011Zm4.294,5.5a.5.5,0,1,1,.5-.5A.506.506,0,0,1,26.666,19.237Z" transform="translate(17.41 10.163)" fill="#fff"/>
    <path id="Path_13" data-name="Path 13" d="M9.852,17.9H4.868A1.534,1.534,0,0,0,3.33,19.307L2.9,24.239a1.978,1.978,0,1,0,1.134,2.1.719.719,0,0,0,.068-.233l.357-4.1H9.813l-.2,2.224a1.974,1.974,0,1,0,1.18,1.906c0-.012.016-.019.016-.033l.582-6.532a1.535,1.535,0,0,0-.359-1.13A1.6,1.6,0,0,0,9.852,17.9Zm-7.731,8.76a.611.611,0,1,1,.611-.611A.613.613,0,0,1,2.121,26.656Zm2.455-6.011.107-1.223a.187.187,0,0,1,.184-.171l5.173,0v.2l-.107,1.19H4.577Zm4.266,6.011a.611.611,0,1,1,.611-.611A.613.613,0,0,1,8.843,26.656Z" transform="translate(0 16.434)" fill="#fff"/>
    <path id="Path_14" data-name="Path 14" d="M25.161,25.678,21.978,22.5l1.085-1.077a2,2,0,0,0,0-2.834l-.767-.776a.682.682,0,0,0-.479-.2,1.046,1.046,0,0,0-.483.2l-1.568,1.559a2.016,2.016,0,0,0,0,2.836l.769.774.008.006,2.308,2.3a2.035,2.035,0,1,0,2.32.4S25.163,25.678,25.161,25.678Zm-4.435-5.349,1.081-1.075.293.3a.647.647,0,0,1,0,.916l-1.083,1.073-.289-.293A.651.651,0,0,1,20.726,20.328Zm2.987,7.487a.689.689,0,1,1,.487-1.176h0a.689.689,0,0,1-.487,1.176Z" transform="translate(17.906 16.166)" fill="#fff"/>
    <path id="Path_15" data-name="Path 15" d="M4.172,13.373l1.04,1.037L2.134,17.482s0,0,0,.006a2.02,2.02,0,1,0,2.294-.373l2.23-2.224s0,0,0-.006l.736-.74a1.97,1.97,0,0,0,0-2.789L5.876,9.838a.682.682,0,0,0-.961,0l-.745.745A1.973,1.973,0,0,0,4.172,13.373Zm-.617,6.18a.651.651,0,1,1,.65-.65A.65.65,0,0,1,3.555,19.553Zm1.578-8.007L5.4,11.28l1.042,1.038a.6.6,0,0,1,.177.431.613.613,0,0,1-.181.435l-.264.264L5.131,12.41A.61.61,0,0,1,5.133,11.546Z" transform="translate(1.313 8.665)" fill="#fff"/>
    <path id="Path_16" data-name="Path 16" d="M3.166,3.128a.68.68,0,0,0,.679-.679V1.111a.679.679,0,0,0-1.359,0V2.449A.679.679,0,0,0,3.166,3.128Z" transform="translate(2.198 0)" fill="#fff"/>
    <path id="Path_17" data-name="Path 17" d="M4.058,3.314A.67.67,0,0,0,4.4,3.223l1.157-.668a.679.679,0,0,0-.679-1.176l-1.157.668a.679.679,0,0,0,.342,1.267Z" transform="translate(3.036 0.806)" fill="#fff"/>
    <path id="Path_18" data-name="Path 18" d="M5.555,3.416,4.4,2.748a.679.679,0,0,0-.679,1.176l1.157.668a.67.67,0,0,0,.338.091.679.679,0,0,0,.342-1.267Z" transform="translate(3.038 2.094)" fill="#fff"/>
    <path id="Path_19" data-name="Path 19" d="M3.17,3.172a.68.68,0,0,0-.679.679V5.187a.679.679,0,1,0,1.359,0V3.851A.68.68,0,0,0,3.17,3.172Z" transform="translate(2.202 2.578)" fill="#fff"/>
    <path id="Path_20" data-name="Path 20" d="M2.5,2.752,1.344,3.42a.679.679,0,0,0,.342,1.267A.67.67,0,0,0,2.023,4.6l1.159-.668A.679.679,0,0,0,2.5,2.752Z" transform="translate(0.803 2.098)" fill="#fff"/>
    <path id="Path_21" data-name="Path 21" d="M1.342,2.558,2.5,3.226A.68.68,0,1,0,3.182,2.05L2.021,1.382a.679.679,0,1,0-.679,1.176Z" transform="translate(0.801 0.809)" fill="#fff"/>
    <path id="Path_22" data-name="Path 22" d="M22.341,3.128a.68.68,0,0,0,.679-.679V1.111a.679.679,0,0,0-1.359,0V2.449A.678.678,0,0,0,22.341,3.128Z" transform="translate(20.242 0)" fill="#fff"/>
    <path id="Path_23" data-name="Path 23" d="M23.231,3.315a.671.671,0,0,0,.34-.091l1.157-.668a.679.679,0,1,0-.679-1.176l-1.157.668a.68.68,0,0,0,.34,1.267Z" transform="translate(21.081 0.805)" fill="#fff"/>
    <path id="Path_24" data-name="Path 24" d="M24.73,3.416l-1.157-.668a.68.68,0,0,0-.679,1.178l1.157.668a.689.689,0,0,0,.34.089.679.679,0,0,0,.34-1.267Z" transform="translate(21.082 2.094)" fill="#fff"/>
    <path id="Path_25" data-name="Path 25" d="M22.345,3.172a.68.68,0,0,0-.679.679V5.187a.679.679,0,0,0,1.359,0V3.851A.681.681,0,0,0,22.345,3.172Z" transform="translate(20.246 2.578)" fill="#fff"/>
    <path id="Path_26" data-name="Path 26" d="M21.678,2.752l-1.159.668a.679.679,0,0,0,.34,1.267A.671.671,0,0,0,21.2,4.6l1.159-.668a.679.679,0,1,0-.679-1.176Z" transform="translate(18.847 2.098)" fill="#fff"/>
    <path id="Path_27" data-name="Path 27" d="M20.518,2.558l1.159.668a.671.671,0,0,0,.34.091.679.679,0,0,0,.34-1.267L21.2,1.382a.679.679,0,1,0-.679,1.176Z" transform="translate(18.846 0.809)" fill="#fff"/>
  </g>
</svg>
