<svg xmlns="http://www.w3.org/2000/svg" width="46.777" height="43.657" viewBox="0 0 46.777 43.657">
  <g id="science-lab-room" transform="translate(-1.997 -4)">
    <path id="Path_7" data-name="Path 7" d="M46.436,13.355H40.2a2.333,2.333,0,0,0-.78,4.534v9.5H34.785L32.4,20.245v-6.93a2.339,2.339,0,0,0-.39-4.638H23.438a2.339,2.339,0,0,0-.39,4.638v6.93l-2.173,6.519a11.61,11.61,0,0,0-2.5-1.509V8.534A2.333,2.333,0,0,0,17.591,4H9.8a2.333,2.333,0,0,0-.78,4.534V25.256a11.682,11.682,0,0,0,8.809,21.633,4.661,4.661,0,0,0,2.559.769H43.318a3.9,3.9,0,0,0,3.9-3.9V17.889a2.333,2.333,0,0,0-.78-4.534ZM40.979,24.269h1.559V22.71H40.979V21.151H44.1V19.592H40.979V18.033h4.678v9.355H40.979ZM39.42,28.947V41.282c-.015-.038-.024-.078-.04-.114L35.305,28.947ZM39.5,44.491A3.847,3.847,0,0,0,40.22,46.1H38.548a4.522,4.522,0,0,0,.95-1.608ZM22.659,11.016a.78.78,0,0,1,.78-.78h8.576a.78.78,0,1,1,0,1.559H23.438A.78.78,0,0,1,22.659,11.016ZM18.086,45.085a3.231,3.231,0,0,1-.3-.39,3.11,3.11,0,0,1-.239-3.005l4.026-12.076a10.09,10.09,0,0,1-3.482,15.471ZM9.8,5.559h7.8a.78.78,0,0,1,0,1.559H9.8a.78.78,0,1,1,0-1.559Zm-6.237,30.4a10.192,10.192,0,0,1,6.516-9.457.78.78,0,0,0,.5-.727V14.914h1.559V13.355H10.575V11.8h3.118V10.237H10.575V8.678h6.237v17.1a.78.78,0,0,0,.5.727,10.044,10.044,0,0,1,3.035,1.842L16.085,41.134a4.665,4.665,0,0,0,.394,4.418c.028.042.062.078.091.122a10.121,10.121,0,0,1-13.012-9.71ZM19.646,46.011a11.636,11.636,0,0,0,2.491-18.1l2.432-7.292a.8.8,0,0,0,.04-.246v-.78h1.559V18.033H24.608V16.473h3.118V14.914H24.608V13.355h6.237v7.016a.8.8,0,0,0,.04.246l2.258,6.77H26.167a.78.78,0,0,0-.624,1.247l2.183,2.91V43.759a3.857,3.857,0,0,0,.8,2.339H20.385a3.207,3.207,0,0,1-.739-.087Zm11.978.087a2.339,2.339,0,0,1-2.2-1.559h1.416V42.98H29.285V41.42h1.559V39.861H29.285V38.3h1.559V36.743H29.285V35.184h1.559V33.625H29.285V31.286a.78.78,0,0,0-.156-.468l-1.4-1.871h5.936l4.249,12.744c.007.02.015.041.023.06A3.118,3.118,0,0,1,35.067,46.1Zm11.694,0a2.339,2.339,0,0,1-2.339-2.339V28.947h4.678v1.559H44.1v1.559h1.559v1.559H44.1v1.559h1.559v1.559H44.1V38.3h1.559v1.559H44.1V41.42h1.559V42.98H44.1v1.559h1.416a2.339,2.339,0,0,1-2.2,1.559Zm3.118-29.625H40.2a.78.78,0,1,1,0-1.559h6.237a.78.78,0,0,1,0,1.559Z" transform="translate(0 0)" fill="#fff"/>
    <path id="Path_8" data-name="Path 8" d="M7.559,43.269a6.961,6.961,0,0,1,2.1-5.01L8.573,37.145A8.514,8.514,0,0,0,6,43.269a8.632,8.632,0,0,0,4.833,7.718l.681-1.4A6.972,6.972,0,0,1,7.559,43.269Z" transform="translate(-0.882 -7.305)" fill="#fff"/>
    <path id="Path_9" data-name="Path 9" d="M14.8,55.348a8.627,8.627,0,0,0,1.715.172V53.96a7.092,7.092,0,0,1-1.4-.14Z" transform="translate(-2.822 -10.981)" fill="#fff"/>
  </g>
</svg>
