<svg xmlns="http://www.w3.org/2000/svg" width="42" height="41.778" viewBox="0 0 42 41.778">
  <g id="sports" transform="translate(-1.682 -2)">
    <path id="Path_28" data-name="Path 28" d="M2.006,46.483A8.543,8.543,0,0,0,2.087,47.5c.007.052.015.1.024.153a8.336,8.336,0,0,0,.208.965c0,.012.006.024.009.036a8.318,8.318,0,0,0,.832,1.931c.022.038.046.076.07.114a8.435,8.435,0,0,0,.524.762c.025.033.049.067.075.1a8.32,8.32,0,0,0,.68.755c.037.036.077.069.115.1.2.191.413.37.632.541.075.058.152.116.229.171.189.136.384.263.585.384.01.006.017.015.028.022l.086.05c.036.024.072.047.11.068l.006,0,0,0,.023.011a8.359,8.359,0,0,0,.966.451l.092.034a8.22,8.22,0,0,0,.82.265l.2.051q.375.09.763.145c.073.01.146.025.219.033a7.732,7.732,0,0,0,1.954,0l.075-.011a8.391,8.391,0,0,0,.942-.178l.026,0,.013,0a8.378,8.378,0,0,0,5.8-5.24c0-.006.007-.011.009-.017s.01-.033.015-.049c.068-.192.13-.387.185-.586.015-.056.029-.111.043-.167.044-.175.085-.351.118-.53.02-.109.034-.218.05-.327.019-.134.041-.267.054-.4.024-.258.039-.516.039-.774s-.015-.543-.041-.813c-.015-.149-.041-.295-.063-.441-.017-.114-.03-.229-.052-.343-.038-.2-.089-.391-.141-.584-.016-.058-.028-.118-.045-.177-.062-.21-.135-.415-.213-.618-.014-.036-.023-.072-.037-.108a.1.1,0,0,0-.007-.012,8.4,8.4,0,0,0-4.571-4.628l-.013-.007c-.033-.013-.068-.022-.1-.034q-.375-.149-.767-.262c-.057-.016-.115-.029-.172-.045q-.383-.1-.78-.166l-.121-.019a8.292,8.292,0,0,0-.888-.084h-.028c-.107,0-.21-.015-.317-.015a8.3,8.3,0,0,0-3.456.758l-.013.006a8.24,8.24,0,0,0-.8.424c-.019.011-.039.019-.058.031s-.01.01-.016.014A8.354,8.354,0,0,0,2,46.356c0,.035,0,.068.006.1,0,0,0,0,0,0S2.006,46.475,2.006,46.483Zm5.354-6.4c.158-.076.318-.146.48-.21l.067-.024a7.011,7.011,0,0,1,2.139-.437c.063,0,.125-.008.188-.01.123,0,.245,0,.368.006.1,0,.207.008.31.016s.214.02.32.033.228.032.341.052.2.035.3.057c.031.007.061.017.093.024l-1.895,1.895H8L7.311,40.1Zm8.457,7.347,1.4-2.2c.013.076.025.152.035.228s.025.175.033.263c.019.212.033.425.033.641a6.72,6.72,0,0,1-.07.93c-.007.051-.015.1-.024.152a7.023,7.023,0,0,1-.206.914L14.79,48.8l1-1.327s0-.006,0-.008Zm-4.181,5.768a7.034,7.034,0,0,1-.847.1c-.077,0-.154.01-.231.012-.216.007-.43,0-.642-.012-.077,0-.156,0-.233-.012a6.772,6.772,0,0,1-.82-.131c-.046-.01-.09-.024-.135-.035a7.113,7.113,0,0,1-.746-.226l-.047-.017,2.034-1.695,2.246-.449Zm1.106-3.987-2.538.508L9.85,47.938l-.118-.592,2.06-1.544,2.418,1.45Zm-3.78-3.025-1.9-1.427L8,42.874H9.925l.941,1.881Zm-2.881-.42,2.25,1.688L8.9,50.264,6.577,52.2l-.044-.026A6.928,6.928,0,0,1,5.368,51.2c-.033-.034-.064-.071-.1-.106-.143-.153-.279-.311-.407-.476-.03-.038-.058-.078-.088-.118-.13-.175-.252-.354-.364-.54l-.051-.084a6.96,6.96,0,0,1-.939-2.956c0-.008,0-.015,0-.022Zm7.1,6.953.536-2.282,2.617-.523A7,7,0,0,1,13.18,52.714Zm3.5-9.246-1.677,2.638L12.28,44.47,11.2,42.315l2.207-2.207A7,7,0,0,1,16.684,43.469ZM6.123,40.84l.669,1.338L5.669,44.423l-2.2.941A6.957,6.957,0,0,1,6.123,40.84Z" transform="translate(-0.097 -10.933)" fill="#fff"/>
    <path id="Path_29" data-name="Path 29" d="M3.238,18.279,20.383,30c-.05.127-.088.256-.129.384,0,.01-.006.019-.009.028a5.132,5.132,0,0,0-.161.68c-.006.031-.013.063-.018.094a5.161,5.161,0,0,0-.058.742s0,0,0,.008,0,0,0,0a5.659,5.659,0,0,0,1.384,3.6c-.029.03-.056.062-.084.093-.013.015-.029.026-.042.041s0,.01-.008.013a4.824,4.824,0,0,0-.025,6.451s0,.01.008.014.034.033.05.051q.13.141.269.272l.091.083c.1.086.2.166.3.244l.087.065c.11.079.224.153.34.223.024.015.049.031.074.045.126.072.256.139.389.2l.052.025c.141.063.286.119.434.169l.031.012a4.661,4.661,0,0,0,.462.125l.026.007c.15.032.3.056.458.074l.046.007a4.937,4.937,0,0,0,.51.027,4.815,4.815,0,0,0,2.39-.635l.008,0q.207-.118.4-.256l.052-.038q.17-.124.329-.262c.025-.022.049-.045.073-.067.1-.088.191-.18.281-.275.011-.012.024-.022.036-.035s0-.01.008-.014a4.829,4.829,0,0,0,1.245-2.74,16.922,16.922,0,0,0,4.61-.019L37.444,41.4a2.785,2.785,0,1,0,2.756-3.19h-.475l-.445-.315a10.94,10.94,0,0,0,1.828-1.2.678.678,0,0,0,.095-.054,7.262,7.262,0,0,0,1.941-2.418l.01-.022a5.594,5.594,0,0,0,.26-.653c.014-.042.028-.085.041-.128a5.3,5.3,0,0,0,.138-.581c.01-.056.023-.11.031-.166a5.229,5.229,0,0,0,.056-.732,5.143,5.143,0,0,0-.057-.733c-.008-.056-.022-.111-.031-.166a5.143,5.143,0,0,0-.138-.581c-.013-.043-.027-.086-.041-.128a5.474,5.474,0,0,0-.26-.653l-.01-.022A7.262,7.262,0,0,0,41.2,27.241a.683.683,0,0,0-.091-.051,12.835,12.835,0,0,0-4.887-2.358c.047-.018.092-.039.138-.058l.158-.066a11.826,11.826,0,0,0,4.452-3.342l0-.006c.239-.29.469-.589.682-.9a.462.462,0,0,0,.02-.042,11.771,11.771,0,0,0,2-6.577c0-.29-.018-.6-.047-.916-.017-.214-.04-.426-.068-.637,0-.009,0-.016,0-.024a.037.037,0,0,1,0-.008,11.851,11.851,0,0,0-7.774-9.56l-.019-.01-.053-.016c-.263-.091-.53-.172-.8-.245-.084-.023-.169-.044-.253-.065-.236-.058-.473-.111-.714-.155-.159-.029-.318-.05-.476-.073-.181-.025-.361-.054-.544-.07C32.568,2.021,32.207,2,31.844,2s-.71.022-1.061.054c-.118.01-.235.025-.352.039-.235.029-.467.065-.7.107-.129.024-.258.044-.386.071-.3.065-.589.139-.877.226-.177.053-.349.116-.522.176-.134.047-.267.095-.4.146-.187.073-.372.149-.554.232-.1.045-.2.1-.3.143a11.369,11.369,0,0,0-1.051.577c-.072.045-.147.086-.219.133-.174.113-.342.232-.51.354q-.148.108-.293.219c-.158.122-.315.245-.467.375-.1.084-.192.174-.288.262q-.368.336-.705.7c-.1.108-.2.214-.3.326-.121.141-.237.285-.351.432-.088.113-.174.228-.258.345-.111.155-.223.308-.327.468-.063.1-.12.2-.18.3q-.306.5-.561,1.028c-.034.071-.073.139-.107.212,0,0,0,.011,0,.016a11.74,11.74,0,0,0-1.075,4.9c0,.271.023.536.04.8,0,0,0,0,0,.007s0,.009,0,.014c.026.369.069.732.127,1.091,0,.02.006.04.009.06q.09.528.225,1.04c.006.025.013.049.019.075q.137.506.317.991l.029.078q.182.483.4.944l.036.076q.226.461.488.9l.04.067c.116.189.228.379.354.561.006.009.008.019.015.029.172.248.355.485.543.718.048.058.1.116.146.174.208.247.423.487.65.715l.035.036c.238.237.487.46.744.676.059.049.118.1.178.148.253.2.512.4.779.583.055.038.113.072.169.109q.342.225.7.425c.079.045.157.091.238.134q.4.214.822.4c.1.044.2.084.3.125l.058.024h0a14.282,14.282,0,0,0-3.17,1.214L7.5,12.538a3.578,3.578,0,1,0-4.265,5.741Zm23.6,23.478c-.065.046-.136.083-.2.123-.1.06-.2.116-.3.166a3.426,3.426,0,0,1-.337.134c-.05.017-.1.032-.152.047A3.611,3.611,0,0,1,23.8,42.2l-.067-.021a3.427,3.427,0,0,1-.4-.164c-.074-.036-.146-.076-.217-.118a3.227,3.227,0,0,1-.275-.171c-.017-.013-.032-.028-.049-.041a3.528,3.528,0,0,1,4.078.035C26.863,41.734,26.852,41.747,26.837,41.757Zm-2.021-2.113a4.851,4.851,0,0,0-2.939,1,3.353,3.353,0,0,1,.013-3.469,4.8,4.8,0,0,0,5.936,0c.017.029.036.056.052.086.04.073.084.143.12.22a3.5,3.5,0,0,1,.143.389c.025.077.053.154.072.233a3.405,3.405,0,0,1,.068.424,2.991,2.991,0,0,1-.464,2.161A4.845,4.845,0,0,0,24.816,39.644Zm-1.969-3.52a3.544,3.544,0,0,1,.444-.264l.058-.032a3.411,3.411,0,0,1,.336-.135c.054-.02.109-.038.165-.056a3.623,3.623,0,0,1,2.062.01l.041.013a3.391,3.391,0,0,1,.395.159c.044.021.086.044.13.067s.068.036.1.054c.081.045.16.093.237.145.027.019.052.042.079.062a3.535,3.535,0,0,1-4.072,0C22.83,36.138,22.838,36.13,22.847,36.124Zm.664-1.857-.016.006c-.125.037-.247.08-.368.127-.033.013-.068.023-.1.037l-.13.056h0c-.134.06-.265.124-.393.195a4.311,4.311,0,0,1-1.1-2.754,3.725,3.725,0,0,1,.049-.585c.008-.051.019-.1.03-.149a3.967,3.967,0,0,1,.1-.407c.021-.067.042-.134.066-.2.039-.106.087-.21.134-.313.026-.054.048-.111.075-.164.007-.011.019-.018.025-.03a5.009,5.009,0,0,1,.423-.66.27.27,0,0,0,.017-.038c.067-.088.136-.171.206-.252s.147-.159.228-.242h0l.006-.006c.047-.049.1-.091.146-.139a4.85,4.85,0,0,1,1.274,3.18A4.536,4.536,0,0,1,23.511,34.267Zm6.118,3.79c-.024-.135-.056-.267-.091-.4l-.008-.032q-.051-.183-.116-.359c-.008-.021-.015-.042-.023-.062-.042-.112-.089-.221-.139-.329l-.034-.071c-.052-.105-.105-.208-.164-.309l-.04-.066c-.061-.1-.124-.2-.192-.3-.01-.013-.02-.026-.029-.04a4.865,4.865,0,0,0-.329-.407s0-.01-.008-.013-.029-.027-.042-.041c-.089-.1-.181-.187-.278-.276l-.079-.072c-.1-.09-.208-.174-.317-.255l-.058-.045-.048-.035c-.078-.055-.159-.105-.241-.155-.045-.028-.089-.056-.135-.082-.076-.043-.154-.084-.233-.123-.056-.028-.111-.055-.168-.081l-.032-.015h0c-.063-.028-.128-.054-.193-.079s-.131-.049-.2-.072-.145-.049-.219-.07-.155-.041-.233-.06-.134-.033-.2-.046c-.094-.018-.189-.031-.285-.044-.041-.006-.081-.015-.123-.019h0l-.04,0c-.063-.006-.127-.008-.191-.011a5.709,5.709,0,0,0,.443-2.158,6.193,6.193,0,0,0-1.6-4.068c.052-.036.1-.07.153-.107.144-.1.288-.191.442-.281a.72.72,0,0,0,.1-.077,14.726,14.726,0,0,1,7.17-1.722,14.108,14.108,0,0,1,7.888,2.172,5.983,5.983,0,0,0,0,8.19A10.573,10.573,0,0,1,37.751,37.1a.765.765,0,0,0-.1.027,14.471,14.471,0,0,1-3.31.886l-.012,0a16.99,16.99,0,0,1-2.483.187A16.686,16.686,0,0,1,29.629,38.057Zm1.091-13.841c-.113-.013-.224-.032-.336-.048h0c-.258-.037-.514-.081-.767-.136-.112-.024-.223-.052-.334-.08l-.069-.018c-.229-.06-.455-.13-.68-.2-.086-.029-.171-.056-.256-.087-.056-.02-.112-.04-.167-.061-.25-.1-.494-.2-.735-.318l-.03-.013c-.07-.033-.141-.066-.21-.1-.117-.06-.229-.127-.343-.191-.162-.09-.323-.179-.48-.277-.175-.111-.345-.23-.514-.35-.111-.079-.221-.16-.329-.244-.178-.138-.353-.279-.522-.428-.076-.067-.148-.139-.222-.209-.17-.159-.34-.319-.5-.489l-.009-.01q-.31-.333-.591-.692l-.011-.013c-.045-.057-.083-.12-.127-.178a7.505,7.505,0,0,1,.384-.73,4.767,4.767,0,0,1,2.22-2.277c1.488-.565,3.056.32,4.869,1.347.74.419,1.506.852,2.315,1.21a15.009,15.009,0,0,0,6.3,1.22c-.075.083-.148.168-.226.249s-.175.178-.265.265c-.159.154-.322.3-.492.446-.1.081-.194.159-.292.236-.17.134-.343.266-.521.39-.113.078-.228.15-.344.223-.172.11-.345.219-.524.319-.139.077-.283.146-.425.217-.164.081-.327.166-.5.239s-.356.14-.535.206c-.146.054-.289.113-.438.161-.216.069-.437.123-.657.177-.122.031-.241.068-.364.094-.258.054-.52.091-.783.125-.093.013-.185.033-.279.042a10.66,10.66,0,0,1-1.09.057A10.381,10.381,0,0,1,30.721,24.216Zm11.3,6.336c.038.1.068.2.1.3s.056.2.078.306c.015.072.032.143.043.217a3.4,3.4,0,0,1,0,1.139c-.011.074-.028.145-.043.217-.022.1-.048.2-.078.306s-.061.2-.1.3c-.009.024-.021.046-.03.07a5.4,5.4,0,0,1-1.2,1.736,4.608,4.608,0,0,1,0-6.389,5.382,5.382,0,0,1,1.2,1.736C42,30.506,42.013,30.529,42.022,30.552Zm-4.206,8.01,1.286.911a.7.7,0,0,0,.4.128h.7a1.393,1.393,0,1,1-1.393,1.393.7.7,0,0,0-.328-.591L36.295,39.04c.029-.008.056-.019.084-.026.416-.112.819-.24,1.209-.381C37.662,38.607,37.742,38.589,37.815,38.562Zm2.858-19.169a14.276,14.276,0,0,1-6.833-1.051c-.746-.331-1.481-.746-2.193-1.149-1.94-1.1-3.946-2.234-6.049-1.436a6.059,6.059,0,0,0-2.922,2.865c-.018.03-.033.063-.051.093a10.349,10.349,0,0,1-1.148-3.7A30.332,30.332,0,0,1,42.238,12.9c0,.035,0,.066.008.1.023.276.043.551.043.832A10.366,10.366,0,0,1,40.673,19.393ZM42,11.42a31.606,31.606,0,0,0-20.578,2.087,10.364,10.364,0,0,1,.712-3.477,8.88,8.88,0,0,0,1.9.217,7.226,7.226,0,0,0,2-.276A8.761,8.761,0,0,0,29.3,8.034c.573-.464,1.223-.991,2.085-1.588A26.422,26.422,0,0,1,35.57,4.091,10.473,10.473,0,0,1,42,11.42ZM23.1,8.136c.091-.14.189-.274.288-.409.07-.1.141-.193.214-.287.1-.129.2-.257.307-.381.084-.1.173-.191.26-.287q.275-.3.571-.574c.082-.077.164-.152.249-.227.13-.113.26-.224.4-.33.075-.058.152-.113.228-.171q.377-.281.777-.528c.079-.049.157-.1.238-.145.155-.09.312-.175.471-.257.089-.045.18-.087.27-.13q.382-.182.778-.333c.125-.047.249-.1.375-.138s.283-.092.427-.133c.184-.053.369-.1.557-.143.127-.029.256-.058.384-.083q.368-.07.743-.113c.091-.01.183-.02.275-.028.308-.027.617-.047.931-.047s.63.019.94.047c.154.015.307.036.46.058.089.012.178.026.266.04A27.683,27.683,0,0,0,30.591,5.3c-.9.626-1.576,1.17-2.169,1.65a7.492,7.492,0,0,1-2.769,1.681,6.27,6.27,0,0,1-2.913.1q.167-.3.352-.58C23.1,8.149,23.1,8.142,23.1,8.136ZM3.482,14.057a2.164,2.164,0,0,1,1.481-.895,2.135,2.135,0,0,1,.3-.021,2.164,2.164,0,0,1,1.363.483l16.407,13.19c-.143.1-.28.206-.413.313l-.015.011h0l-.075.063c-.015.01-.033.015-.047.026a8.448,8.448,0,0,0-.918.9c-.013.015-.029.029-.042.045a1.325,1.325,0,0,0-.359.451c-.038.05-.078.1-.113.15L4.025,17.13a2.187,2.187,0,0,1-.543-3.073Z" transform="translate(0)" fill="#fff"/>
    <path id="Path_30" data-name="Path 30" d="M44.888,41.922v1.256h1.393v-1c.373.08.77.171,1.221.286l.343-1.349c-.581-.148-1.1-.265-1.565-.36V39H44.887v1.518c-.5-.063-.949-.1-1.393-.112V39H42.1v1.405c-.512.017-.972.052-1.393.1V39H39.317v1.734c-.467.1-.907.208-1.351.322l-.213.054L38.1,42.46l.214-.054c.341-.087.671-.171,1.007-.247v1.019H40.71V41.909c.418-.054.873-.093,1.393-.111v1.38h1.393V41.8A13.711,13.711,0,0,1,44.888,41.922Z" transform="translate(-10.955 -11.237)" fill="#fff"/>
  </g>
</svg>
