<svg xmlns="http://www.w3.org/2000/svg" width="38.267" height="41" viewBox="0 0 38.267 41">
  <g id="transport" transform="translate(-4 -2)">
    <path id="Path_36" data-name="Path 36" d="M15.05,25.617H36.917a2.05,2.05,0,0,0,2.05-2.05V16.05A2.05,2.05,0,0,0,36.917,14H15.05A2.05,2.05,0,0,0,13,16.05v7.517A2.05,2.05,0,0,0,15.05,25.617Zm-.683-9.567a.683.683,0,0,1,.683-.683H36.917a.683.683,0,0,1,.683.683v7.517a.683.683,0,0,1-.683.683H15.05a.683.683,0,0,1-.683-.683Z" transform="translate(-2.85 -3.8)" fill="#fff"/>
    <path id="Path_37" data-name="Path 37" d="M13.1,36a4.1,4.1,0,1,0,4.1,4.1A4.1,4.1,0,0,0,13.1,36Zm0,6.833A2.733,2.733,0,1,1,15.833,40.1,2.733,2.733,0,0,1,13.1,42.833Z" transform="translate(-1.583 -10.767)" fill="#fff"/>
    <path id="Path_38" data-name="Path 38" d="M47.1,36a4.1,4.1,0,1,0,4.1,4.1A4.1,4.1,0,0,0,47.1,36Zm0,6.833A2.733,2.733,0,1,1,49.833,40.1,2.733,2.733,0,0,1,47.1,42.833Z" transform="translate(-12.35 -10.767)" fill="#fff"/>
    <path id="Path_39" data-name="Path 39" d="M20.367,10.1H35.4a1.367,1.367,0,0,0,1.367-1.367V7.367A1.367,1.367,0,0,0,35.4,6H20.367A1.367,1.367,0,0,0,19,7.367V8.733A1.367,1.367,0,0,0,20.367,10.1Zm0-2.733H35.4V8.733H20.367Z" transform="translate(-4.75 -1.267)" fill="#fff"/>
    <path id="Path_40" data-name="Path 40" d="M40.217,18.4a2.05,2.05,0,0,0,2.05-2.05v-4.1a2.05,2.05,0,0,0-2.05-2.05H38.85V8.15A6.158,6.158,0,0,0,32.7,2H13.567a6.158,6.158,0,0,0-6.15,6.15V10.2H6.05A2.05,2.05,0,0,0,4,12.25v4.1A2.05,2.05,0,0,0,6.05,18.4H7.417v3.134L5,23.95a3.393,3.393,0,0,0-1,2.416v9.118a2.05,2.05,0,0,0,2.05,2.05H7.417V40.95A2.05,2.05,0,0,0,9.467,43h3.417a2.05,2.05,0,0,0,2.05-2.05V37.533h16.4V40.95A2.05,2.05,0,0,0,33.383,43H36.8a2.05,2.05,0,0,0,2.05-2.05V37.533h1.367a2.05,2.05,0,0,0,2.05-2.05V26.366a3.393,3.393,0,0,0-1-2.416L38.85,21.534V18.4Zm0-6.833a.683.683,0,0,1,.683.683v4.1a.683.683,0,0,1-.683.683H38.85V11.567ZM6.05,17.033a.683.683,0,0,1-.683-.683v-4.1a.683.683,0,0,1,.683-.683H7.417v5.467ZM13.567,40.95a.683.683,0,0,1-.683.683H9.467a.683.683,0,0,1-.683-.683V37.533h4.783Zm23.917,0a.683.683,0,0,1-.683.683H33.383a.683.683,0,0,1-.683-.683V37.533h4.783ZM40.3,24.916a2.064,2.064,0,0,1,.6,1.449v9.118a.683.683,0,0,1-.683.683H6.05a.683.683,0,0,1-.683-.683V26.366a2.064,2.064,0,0,1,.6-1.449L8.583,22.3a.683.683,0,0,0,.2-.483V8.15a4.789,4.789,0,0,1,4.783-4.783H32.7A4.789,4.789,0,0,1,37.483,8.15V21.817a.683.683,0,0,0,.2.483Z" transform="translate(0)" fill="#fff"/>
    <path id="Path_41" data-name="Path 41" d="M34.25,42.367a.683.683,0,1,0,0-1.367H24.683a.683.683,0,0,0,0,1.367Z" transform="translate(-6.333 -12.35)" fill="#fff"/>
    <path id="Path_42" data-name="Path 42" d="M34.617,45H23.683a.683.683,0,1,0,0,1.367H34.617a.683.683,0,0,0,0-1.367Z" transform="translate(-6.017 -13.617)" fill="#fff"/>
    <path id="Path_43" data-name="Path 43" d="M34.617,37H23.683a.683.683,0,0,0,0,1.367H34.617a.683.683,0,0,0,0-1.367Z" transform="translate(-6.017 -11.083)" fill="#fff"/>
  </g>
</svg>
